<?xml version="1.0" standalone="no"?>
<!DOCTYPE svg PUBLIC "-//W3C//DTD SVG 20010904//EN"
 "http://www.w3.org/TR/2001/REC-SVG-20010904/DTD/svg10.dtd">
<svg version="1.0" xmlns="http://www.w3.org/2000/svg"
 width="233.000000pt" height="249.000000pt" viewBox="0 0 233.000000 249.000000"
 preserveAspectRatio="xMidYMid meet">

<g transform="translate(0.000000,249.000000) scale(0.100000,-0.100000)"
fill="#000000" stroke="none">
<path d="M1005 2469 c-48 -20 -581 -368 -700 -457 -134 -101 -193 -176 -220
-277 -12 -49 -15 -135 -15 -507 0 -428 1 -452 21 -510 54 -162 141 -234 721
-604 l179 -114 204 0 204 0 353 238 c395 265 463 322 519 437 l34 70 0 475 0
475 -42 88 c-67 140 -84 153 -692 566 -201 136 -216 141 -384 140 -108 0 -141
-4 -182 -20z m265 -232 c49 -18 332 -214 347 -240 40 -72 -20 -144 -111 -134
-22 2 -75 17 -116 32 -91 33 -237 45 -321 25 -126 -29 -266 -108 -371 -208
-150 -143 -227 -357 -199 -555 14 -105 41 -186 84 -252 28 -44 32 -59 32 -118
0 -65 -2 -70 -30 -93 -40 -32 -87 -45 -128 -33 -46 13 -112 71 -130 116 -19
50 -29 372 -19 669 7 220 7 221 35 261 15 22 63 65 105 96 135 97 620 417 654
432 41 18 121 18 168 2z m709 -460 c24 -16 48 -45 65 -78 l26 -53 0 -402 c0
-444 -2 -459 -63 -522 -18 -19 -108 -84 -202 -146 -93 -63 -236 -159 -318
-215 -191 -132 -218 -144 -316 -140 l-77 4 -163 110 c-98 66 -169 121 -177
137 -22 43 -17 73 17 102 42 35 94 34 200 -5 117 -44 267 -52 384 -20 201 56
380 202 468 385 49 100 62 163 61 296 -2 137 -28 233 -95 344 -47 78 -52 120
-19 166 50 71 135 86 209 37z m-631 -139 c6 -6 12 -16 12 -23 0 -23 -148 -588
-180 -688 -23 -71 -38 -101 -55 -113 -28 -19 -73 -12 -82 12 -3 8 33 153 81
322 47 169 95 347 106 396 11 50 26 96 32 103 12 15 63 9 86 -9z m-348 -230
c0 -16 -27 -47 -85 -101 l-84 -78 80 -76 c43 -42 82 -87 85 -100 8 -31 -8 -68
-40 -88 l-26 -17 -132 137 c-73 76 -133 143 -133 150 0 7 60 70 134 141 l134
127 33 -36 c19 -20 34 -47 34 -59z m560 -15 c53 -54 108 -108 123 -120 46 -39
37 -56 -99 -187 -70 -67 -133 -123 -141 -124 -18 -5 -52 25 -63 54 -15 38 -1
60 85 134 46 40 81 78 79 84 -3 6 -41 40 -85 75 -85 70 -92 86 -64 141 15 28
28 38 54 39 8 1 58 -43 111 -96z"/>
</g>
</svg>
